<?xml version="1.0" encoding="UTF-8" standalone="no"?>
<svg
   xmlns:dc="http://purl.org/dc/elements/1.1/"
   xmlns:cc="http://creativecommons.org/ns#"
   xmlns:rdf="http://www.w3.org/1999/02/22-rdf-syntax-ns#"
   xmlns:svg="http://www.w3.org/2000/svg"
   xmlns="http://www.w3.org/2000/svg"
   xmlns:xlink="http://www.w3.org/1999/xlink"
   xmlns:sodipodi="http://sodipodi.sourceforge.net/DTD/sodipodi-0.dtd"
   xmlns:inkscape="http://www.inkscape.org/namespaces/inkscape"
   inkscape:version="1.0.2 (e86c870879, 2021-01-15)"
   sodipodi:docname="icon.svg"
   id="SVGRoot"
   version="1.1"
   viewBox="0 0 512.0 512.0"
   height="512.0px"
   width="512.0px"
   inkscape:export-filename="/home/user/dev/python/pw-py/image/icon.png"
   inkscape:export-xdpi="96"
   inkscape:export-ydpi="96">
  <defs
     id="defs1402">
    <linearGradient
       inkscape:collect="always"
       id="linearGradient5501">
      <stop
         style="stop-color:#0f5b9e;stop-opacity:1"
         offset="0"
         id="stop5497" />
      <stop
         style="stop-color:#0f5b9e;stop-opacity:0.12837777"
         offset="1"
         id="stop5499" />
    </linearGradient>
    <linearGradient
       inkscape:collect="always"
       id="abc">
      <stop
         style="stop-color:#61d0ff;stop-opacity:1"
         offset="0"
         id="stop2028" />
      <stop
         style="stop-color:#288fff;stop-opacity:1"
         offset="1"
         id="stop2030" />
    </linearGradient>
    <linearGradient
       inkscape:collect="always"
       xlink:href="#abc"
       id="linearGradient2034"
       x1="31.025948"
       y1="133.07751"
       x2="500.72498"
       y2="342.20099"
       gradientUnits="userSpaceOnUse"
       gradientTransform="translate(106.03867,-256)" />
    <linearGradient
       inkscape:collect="always"
       xlink:href="#linearGradient5501"
       id="linearGradient5503"
       x1="199.19321"
       y1="50"
       x2="375.77066"
       y2="510"
       gradientUnits="userSpaceOnUse" />
  </defs>
  <sodipodi:namedview
     id="base"
     pagecolor="#ffffff"
     bordercolor="#666666"
     borderopacity="1.0"
     inkscape:pageopacity="0.0"
     inkscape:pageshadow="2"
     inkscape:zoom="1.28"
     inkscape:cx="404.14061"
     inkscape:cy="101.48281"
     inkscape:document-units="px"
     inkscape:current-layer="layer1"
     inkscape:document-rotation="0"
     showgrid="true"
     inkscape:window-width="1920"
     inkscape:window-height="1008"
     inkscape:window-x="0"
     inkscape:window-y="0"
     inkscape:window-maximized="1">
    <inkscape:grid
       type="xygrid"
       id="grid1972" />
    <sodipodi:guide
       position="180,512"
       orientation="0.93358043,0.35836795"
       id="guide2209"
       inkscape:label=""
       inkscape:locked="false"
       inkscape:color="rgb(0,0,255)" />
  </sodipodi:namedview>
  <metadata
     id="metadata1405">
    <rdf:RDF>
      <cc:Work
         rdf:about="">
        <dc:format>image/svg+xml</dc:format>
        <dc:type
           rdf:resource="http://purl.org/dc/dcmitype/StillImage" />
        <dc:title />
      </cc:Work>
    </rdf:RDF>
  </metadata>
  <g
     inkscape:label="Layer 1"
     inkscape:groupmode="layer"
     id="layer1">
    <circle
       style="display:inline;opacity:1;mix-blend-mode:normal;fill:url(#linearGradient2034);fill-opacity:1;stroke-width:1.02425;stroke-miterlimit:4;stroke-dasharray:none"
       id="path2006"
       cx="362.03867"
       cy="2.8421709e-14"
       r="256"
       transform="rotate(45)" />
    <path
       id="path1809"
       style="opacity:0.998;fill:url(#linearGradient5503);fill-opacity:1;stroke:#000000;stroke-width:0.055px;stroke-miterlimit:4;stroke-dasharray:none;stroke-opacity:1"
       d="M 229.74414 46.464844 C 184.98214 46.555344 148.74319 82.867598 148.74219 127.62891 L 148.74219 127.63086 C 148.74219 149.16086 157.29563 169.80539 172.51562 185.02539 C 172.71247 185.22224 172.92049 185.405 173.11914 185.59961 C 173.29814 185.78202 173.4656 185.97341 173.64648 186.1543 C 173.84755 186.35538 174.06072 186.54148 174.26367 186.74023 C 174.43882 186.91865 174.60235 187.10625 174.7793 187.2832 C 174.97479 187.47869 175.18164 187.66023 175.37891 187.85352 C 175.55921 188.03727 175.72794 188.2299 175.91016 188.41211 C 176.10594 188.6079 176.3122 188.79078 176.50977 188.98438 C 176.69036 189.16844 176.86045 189.36045 177.04297 189.54297 C 177.23854 189.73855 177.44522 189.9199 177.64258 190.11328 C 177.82336 190.29754 177.99308 190.49113 178.17578 190.67383 C 178.37134 190.86939 178.57805 191.05078 178.77539 191.24414 C 178.95564 191.42784 179.12448 191.62059 179.30664 191.80273 C 179.50217 191.99827 179.70893 192.17971 179.90625 192.37305 C 180.08647 192.55673 180.25537 192.7495 180.4375 192.93164 C 180.63954 193.13367 180.85269 193.3218 181.05664 193.52148 C 181.23076 193.69884 181.39442 193.88464 181.57031 194.06055 C 181.76059 194.25082 181.96233 194.42704 182.1543 194.61523 C 182.33998 194.80459 182.51347 195.0037 182.70117 195.19141 C 182.90323 195.39346 183.11635 195.58154 183.32031 195.78125 C 183.49445 195.95862 183.65806 196.14439 183.83398 196.32031 C 184.03478 196.52111 184.24654 196.70777 184.44922 196.90625 C 184.62462 197.08494 184.78959 197.272 184.9668 197.44922 C 185.16359 197.64601 185.37171 197.82887 185.57031 198.02344 C 185.74928 198.20581 185.91681 198.39729 186.09766 198.57812 C 186.29475 198.77522 186.50226 198.95943 186.70117 199.1543 C 186.88043 199.33698 187.04932 199.52784 187.23047 199.70898 C 187.42729 199.9058 187.63535 200.08861 187.83398 200.2832 C 188.01297 200.4656 188.18047 200.65703 188.36133 200.83789 C 188.55682 201.03339 188.76366 201.2149 188.96094 201.4082 C 189.14176 201.5925 189.31141 201.78602 189.49414 201.96875 C 189.69496 202.16957 189.90667 202.35619 190.10938 202.55469 C 190.28481 202.73339 190.44972 202.92042 190.62695 203.09766 C 190.82376 203.29447 191.03185 203.47729 191.23047 203.67188 C 191.40946 203.85427 191.57695 204.0457 191.75781 204.22656 C 191.94807 204.41684 192.14984 204.59305 192.3418 204.78125 C 192.52747 204.9706 192.70098 205.16972 192.88867 205.35742 C 193.09073 205.55948 193.30384 205.74755 193.50781 205.94727 C 193.68196 206.12464 193.84557 206.31041 194.02148 206.48633 C 194.21569 206.68053 194.42122 206.8607 194.61719 207.05273 C 194.79873 207.23779 194.96887 207.43175 195.15234 207.61523 C 195.35305 207.81593 195.56498 208.00278 195.76758 208.20117 C 195.94302 208.37989 196.10792 208.5669 196.28516 208.74414 C 196.47964 208.93862 196.6846 209.12019 196.88086 209.3125 C 197.06268 209.49784 197.23422 209.69125 197.41797 209.875 C 197.61478 210.07181 197.82285 210.25462 198.02148 210.44922 C 198.20047 210.63162 198.36797 210.82305 198.54883 211.00391 C 198.74307 211.19815 198.94851 211.37823 199.14453 211.57031 C 199.32663 211.75594 199.4976 211.95073 199.68164 212.13477 C 199.87716 212.33029 200.08393 212.51174 200.28125 212.70508 C 200.46148 212.88877 200.63037 213.08154 200.8125 213.26367 C 201.01452 213.46569 201.2277 213.65383 201.43164 213.85352 C 201.60577 214.03087 201.76941 214.21668 201.94531 214.39258 C 202.13557 214.58285 202.33734 214.75907 202.5293 214.94727 C 202.71498 215.13662 202.88848 215.33574 203.07617 215.52344 C 203.27814 215.72542 203.49143 215.91363 203.69531 216.11328 C 203.86941 216.29059 204.03312 216.47649 204.20898 216.65234 C 204.40455 216.84791 204.61123 217.02928 204.80859 217.22266 C 204.98886 217.40639 205.15769 217.59908 205.33984 217.78125 C 205.54219 217.98358 205.75666 218.1711 205.96094 218.37109 C 206.13473 218.5481 206.2971 218.7346 206.47266 218.91016 C 206.6629 219.1004 206.86469 219.27667 207.05664 219.46484 C 207.24229 219.65418 207.41585 219.85334 207.60352 220.04102 C 207.80554 220.24304 208.01871 220.43116 208.22266 220.63086 C 208.39678 220.80821 208.56043 220.99403 208.73633 221.16992 C 208.92659 221.36018 209.12835 221.53642 209.32031 221.72461 C 209.50599 221.91396 209.6795 222.11309 209.86719 222.30078 C 210.06916 222.50276 210.28243 222.69098 210.48633 222.89062 C 210.66041 223.06793 210.82415 223.25384 211 223.42969 C 211.20078 223.63048 211.41255 223.81714 211.61523 224.01562 C 211.79064 224.19431 211.95561 224.38139 212.13281 224.55859 C 212.32308 224.74886 212.52483 224.92508 212.7168 225.11328 C 212.90248 225.30264 213.07598 225.50176 213.26367 225.68945 C 213.46441 225.89019 213.67626 226.07695 213.87891 226.27539 C 214.05427 226.45403 214.21933 226.6412 214.39648 226.81836 C 214.59068 227.01255 214.79622 227.19272 214.99219 227.38477 C 215.17374 227.56983 215.34387 227.76379 215.52734 227.94727 C 215.7296 228.14953 215.94425 228.33718 216.14844 228.53711 C 216.3223 228.71419 216.48454 228.90055 216.66016 229.07617 C 216.84915 229.26517 217.04956 229.43999 217.24023 229.62695 C 217.42716 229.81762 217.60205 230.01805 217.79102 230.20703 C 217.99337 230.40939 218.20782 230.59683 218.41211 230.79688 C 218.58593 230.97391 218.74826 231.16036 218.92383 231.33594 C 219.11539 231.5275 219.31842 231.70506 219.51172 231.89453 C 219.69606 232.0825 219.86837 232.28047 220.05469 232.4668 C 220.25542 232.66753 220.46728 232.85429 220.66992 233.05273 C 220.84528 233.23137 221.01035 233.41855 221.1875 233.5957 C 221.383 233.79121 221.5898 233.97269 221.78711 234.16602 C 221.96731 234.34968 222.13627 234.54251 222.31836 234.72461 C 222.52062 234.92687 222.73525 235.11452 222.93945 235.31445 C 223.11331 235.49153 223.27556 235.6779 223.45117 235.85352 C 223.64141 236.04375 223.84321 236.22003 224.03516 236.4082 C 224.22082 236.59753 224.39437 236.79671 224.58203 236.98438 C 224.59932 237.00165 224.61732 237.01806 224.63477 237.03516 L 136.12891 427.13086 L 137.49414 427.76172 L 137.26172 428.25977 L 138.625 428.88867 L 138.39258 429.39062 L 139.75781 430.02148 C 139.75675 430.02376 139.5254 430.51952 139.52539 430.51953 L 140.88867 431.14844 C 140.8876 431.15073 140.65626 431.64842 140.65625 431.64844 L 142.02148 432.2793 L 141.78906 432.7793 L 143.1543 433.41016 C 143.15323 433.41244 142.92186 433.90818 142.92188 433.9082 L 144.28516 434.53711 C 144.28408 434.53942 144.05275 435.03708 144.05273 435.03711 L 145.41797 435.66797 C 145.41689 435.67028 145.18556 436.16794 145.18555 436.16797 L 146.54883 436.79688 C 146.54775 436.79919 146.31642 437.29682 146.31641 437.29688 C 146.31641 437.29688 147.58396 437.8816 147.67969 437.92578 C 147.67861 437.92809 147.44728 438.42575 147.44727 438.42578 C 147.44727 438.42578 148.71646 439.01231 148.8125 439.05664 C 148.81142 439.05896 148.5801 439.5566 148.58008 439.55664 C 148.58008 439.55664 149.84926 440.14317 149.94531 440.1875 C 149.94424 440.18981 149.71291 440.6855 149.71289 440.68555 C 149.71289 440.68555 150.98044 441.27027 151.07617 441.31445 C 151.07509 441.31678 150.84377 441.81441 150.84375 441.81445 C 150.84375 441.81445 152.11294 442.40098 152.20898 442.44531 C 152.2079 442.44764 151.97659 442.94526 151.97656 442.94531 C 151.97656 442.94531 153.24412 443.53004 153.33984 443.57422 C 153.33876 443.57655 153.10745 444.07417 153.10742 444.07422 C 153.10742 444.07422 154.37661 444.66075 154.47266 444.70508 C 154.47158 444.7074 154.24026 445.20307 154.24023 445.20312 C 154.24023 445.20312 155.5078 445.78785 155.60352 445.83203 C 155.60243 445.83437 155.37112 446.33197 155.37109 446.33203 C 155.37109 446.33203 156.64028 446.91856 156.73633 446.96289 C 156.73524 446.96523 156.50393 447.46283 156.50391 447.46289 C 156.50391 447.46289 157.7731 448.04942 157.86914 448.09375 C 157.86806 448.09608 157.63675 448.59173 157.63672 448.5918 C 157.63672 448.5918 158.90428 449.17652 159 449.2207 C 158.9989 449.22307 158.76761 449.72259 158.76758 449.72266 C 158.76758 449.72266 160.03677 450.30919 160.13281 450.35352 C 160.13173 450.35585 159.90042 450.85149 159.90039 450.85156 C 159.90039 450.85156 161.16796 451.43629 161.26367 451.48047 C 161.26258 451.48282 161.03128 451.98039 161.03125 451.98047 C 161.03125 451.98047 162.29882 452.5652 162.39453 452.60938 C 162.39343 452.61174 162.16215 453.11125 162.16211 453.11133 C 162.16211 453.11133 163.43131 453.69787 163.52734 453.74219 C 163.52625 453.74453 163.29496 454.24015 163.29492 454.24023 C 163.29492 454.24023 164.56412 454.82677 164.66016 454.87109 C 164.65906 454.87344 164.42777 455.36906 164.42773 455.36914 L 165.79102 455.99805 C 165.78991 456.00041 165.55863 456.49796 165.55859 456.49805 L 166.92383 457.12891 C 166.92272 457.13128 166.69145 457.62881 166.69141 457.62891 C 166.69141 457.62891 167.95898 458.21364 168.05469 458.25781 C 168.05358 458.26018 167.82231 458.75772 167.82227 458.75781 C 167.82227 458.75781 169.09147 459.34435 169.1875 459.38867 C 169.18639 459.39105 168.95512 459.88857 168.95508 459.88867 C 168.95508 459.88867 170.22428 460.47521 170.32031 460.51953 C 170.31921 460.52189 170.08794 461.01748 170.08789 461.01758 C 170.08789 461.01758 171.35546 461.60231 171.45117 461.64648 C 171.45006 461.64887 171.2188 462.14638 171.21875 462.14648 C 171.21875 462.14648 172.48796 462.73302 172.58398 462.77734 C 172.58287 462.77973 172.35161 463.27724 172.35156 463.27734 C 172.35156 463.27734 173.61914 463.86208 173.71484 463.90625 C 173.71373 463.90864 173.48247 464.40614 173.48242 464.40625 C 173.48242 464.40625 174.75163 464.99279 174.84766 465.03711 C 174.84655 465.03949 174.61529 465.53504 174.61523 465.53516 C 174.61523 465.53516 175.88282 466.11989 175.97852 466.16406 C 175.9774 466.16646 175.74615 466.66395 175.74609 466.66406 C 175.74609 466.66406 177.01531 467.2506 177.11133 467.29492 C 177.11021 467.29732 176.87896 467.7948 176.87891 467.79492 C 176.87891 467.79492 178.14649 468.37966 178.24219 468.42383 C 178.24107 468.42623 178.00982 468.92371 178.00977 468.92383 C 178.00977 468.92383 179.27898 469.51037 179.375 469.55469 C 179.37388 469.55709 179.14264 470.05456 179.14258 470.05469 C 179.14258 470.05469 180.41016 470.63943 180.50586 470.68359 C 180.50474 470.686 180.2735 471.18347 180.27344 471.18359 C 180.27344 471.18359 181.54265 471.77014 181.63867 471.81445 C 181.63756 471.81685 181.40631 472.31237 181.40625 472.3125 C 181.40625 472.3125 182.67384 472.89724 182.76953 472.94141 C 182.7684 472.94384 182.53717 473.44322 182.53711 473.44336 C 182.53711 473.44336 183.80633 474.0299 183.90234 474.07422 C 183.90123 474.07662 183.66999 474.57213 183.66992 474.57227 C 183.66992 474.57227 184.93914 475.15882 185.03516 475.20312 C 185.03404 475.20553 184.8028 475.70103 184.80273 475.70117 C 184.80273 475.70117 186.07032 476.28591 186.16602 476.33008 C 186.16489 476.3325 185.93366 476.82993 185.93359 476.83008 C 185.93359 476.83008 187.20282 477.41662 187.29883 477.46094 C 187.2977 477.46336 187.06647 477.96079 187.06641 477.96094 C 187.06641 477.96094 188.334 478.54568 188.42969 478.58984 L 188.19727 479.08984 C 188.19727 479.08984 189.46649 479.67639 189.5625 479.7207 C 189.56137 479.72314 189.33015 480.22055 189.33008 480.2207 C 189.33008 480.2207 190.5993 480.80725 190.69531 480.85156 C 190.69419 480.85398 190.46296 481.34945 190.46289 481.34961 C 190.46289 481.34961 191.73048 481.93435 191.82617 481.97852 C 191.82504 481.98096 191.59383 482.47835 191.59375 482.47852 C 191.59375 482.47852 192.86135 483.06326 192.95703 483.10742 C 192.95589 483.10988 192.72469 483.60921 192.72461 483.60938 C 192.72461 483.60938 193.99384 484.19593 194.08984 484.24023 C 194.08871 484.24267 193.8575 484.73811 193.85742 484.73828 C 193.85742 484.73828 195.12503 485.32303 195.2207 485.36719 C 195.21956 485.36964 194.98836 485.86702 194.98828 485.86719 C 194.98828 485.86719 196.25751 486.45374 196.35352 486.49805 C 196.35238 486.50048 196.12118 486.99592 196.12109 486.99609 L 197.48633 487.62695 C 197.48519 487.62941 197.25399 488.12677 197.25391 488.12695 C 197.25391 488.12695 198.5215 488.7117 198.61719 488.75586 C 198.61604 488.75832 198.38485 489.25568 198.38477 489.25586 C 198.38477 489.25586 199.654 489.84241 199.75 489.88672 C 199.74885 489.88918 199.51766 490.38653 199.51758 490.38672 C 199.51758 490.38672 200.78518 490.97149 200.88086 491.01562 C 200.87971 491.01809 200.64852 491.51545 200.64844 491.51562 C 200.64844 491.51562 201.91767 492.10218 202.01367 492.14648 C 202.01253 492.14894 201.78134 492.64434 201.78125 492.64453 C 201.78125 492.64453 203.04886 493.22928 203.14453 493.27344 C 203.14337 493.27592 202.9122 493.7752 202.91211 493.77539 C 202.91211 493.77539 204.18135 494.36194 204.27734 494.40625 C 204.2762 494.40871 204.04501 494.9041 204.04492 494.9043 C 204.04492 494.9043 205.31417 495.49085 205.41016 495.53516 C 205.40901 495.53762 205.17783 496.033 205.17773 496.0332 C 205.17785 496.03326 206.44524 496.61791 206.54102 496.66211 C 206.53986 496.66459 206.30869 497.16191 206.30859 497.16211 C 206.30859 497.16211 207.5762 497.74686 207.67188 497.79102 C 207.67071 497.79352 207.43955 498.29276 207.43945 498.29297 C 207.43945 498.29297 208.70871 498.87953 208.80469 498.92383 C 208.80354 498.9263 208.57236 499.42166 208.57227 499.42188 C 208.57227 499.42188 209.83988 500.00663 209.93555 500.05078 C 209.93438 500.05329 209.70323 500.55252 209.70312 500.55273 C 209.70312 500.55273 210.97237 501.13929 211.06836 501.18359 C 211.06721 501.18607 210.83604 501.68143 210.83594 501.68164 C 210.83594 501.68164 212.10518 502.2682 212.20117 502.3125 C 212.20002 502.31498 211.96885 502.81033 211.96875 502.81055 C 211.96875 502.81055 213.23637 503.3953 213.33203 503.43945 C 213.33086 503.44197 213.09971 503.94118 213.09961 503.94141 C 213.09961 503.94141 214.36886 504.52797 214.46484 504.57227 C 214.46369 504.57475 214.23253 505.07009 214.23242 505.07031 C 214.23242 505.07031 215.50005 505.65507 215.5957 505.69922 C 215.59454 505.70173 215.36339 506.19899 215.36328 506.19922 C 215.36328 506.19922 216.63254 506.78578 216.72852 506.83008 C 216.72736 506.83257 216.4962 507.32791 216.49609 507.32812 C 216.49609 507.32812 217.76535 507.91469 217.86133 507.95898 C 217.86016 507.9615 217.62902 508.45875 217.62891 508.45898 C 217.62891 508.45898 218.89653 509.04374 218.99219 509.08789 C 218.9917 509.08893 218.94304 509.19477 218.89648 509.29492 A 256 256 0 0 0 437.01953 437.01953 A 256 256 0 0 0 509.46094 291.95898 C 509.16197 291.65704 508.8622 291.3561 508.55859 291.05859 C 508.17862 290.67139 507.79386 290.28971 507.40625 289.91016 C 507.04616 289.54346 506.68335 289.18015 506.31641 288.82031 C 505.92949 288.42573 505.53742 288.03703 505.14258 287.65039 C 504.77958 287.28073 504.41294 286.91542 504.04297 286.55273 C 503.66083 286.16315 503.27464 285.77834 502.88477 285.39648 C 502.51606 285.02094 502.14348 284.64959 501.76758 284.28125 C 501.38897 283.89543 501.00533 283.51494 500.61914 283.13672 C 500.25101 282.76178 499.87921 282.3912 499.50391 282.02344 C 499.13008 281.64247 498.75231 281.26614 498.37109 280.89258 C 497.99113 280.50538 497.60636 280.1237 497.21875 279.74414 C 496.85866 279.37745 496.49586 279.01413 496.12891 278.6543 C 495.74199 278.25972 495.34992 277.87102 494.95508 277.48438 C 494.59337 277.11603 494.228 276.75207 493.85938 276.39062 C 493.47602 275.99976 493.08839 275.61354 492.69727 275.23047 C 492.32178 274.84802 491.94154 274.47068 491.55859 274.0957 C 491.19172 273.7221 490.82126 273.3528 490.44727 272.98633 C 490.07407 272.60604 489.69697 272.23034 489.31641 271.85742 C 488.94258 271.47646 488.56482 271.10012 488.18359 270.72656 C 487.80362 270.33936 487.41886 269.95768 487.03125 269.57812 C 486.67116 269.21143 486.30835 268.84811 485.94141 268.48828 C 485.55449 268.09371 485.16242 267.705 484.76758 267.31836 C 484.40587 266.95001 484.0405 266.58603 483.67188 266.22461 C 483.28659 265.83178 482.89705 265.44356 482.50391 265.05859 C 482.13703 264.685 481.76657 264.31569 481.39258 263.94922 C 481.01809 263.56761 480.63972 263.19059 480.25781 262.81641 C 479.88402 262.43554 479.50618 262.05902 479.125 261.68555 C 478.74759 261.30101 478.36541 260.92192 477.98047 260.54492 C 477.60555 260.16308 477.2261 259.78651 476.84375 259.41211 C 476.48366 259.04541 476.12086 258.6821 475.75391 258.32227 C 475.36699 257.92769 474.97492 257.53898 474.58008 257.15234 C 474.21837 256.784 473.853 256.42001 473.48438 256.05859 C 473.10046 255.66715 472.71204 255.28012 472.32031 254.89648 C 471.9454 254.51465 471.56594 254.13807 471.18359 253.76367 C 470.82188 253.39533 470.45652 253.03134 470.08789 252.66992 C 469.70261 252.27709 469.31306 251.88887 468.91992 251.50391 C 468.55305 251.13031 468.18258 250.76101 467.80859 250.39453 C 467.44056 250.01949 467.06857 249.64912 466.69336 249.28125 C 466.30944 248.88981 465.92103 248.50277 465.5293 248.11914 C 465.15438 247.7373 464.77493 247.36073 464.39258 246.98633 C 464.03086 246.61799 463.6655 246.254 463.29688 245.89258 C 462.9128 245.50099 462.52468 245.11424 462.13281 244.73047 C 461.76468 244.35553 461.39288 243.98495 461.01758 243.61719 C 460.64438 243.2369 460.26728 242.8612 459.88672 242.48828 C 459.5116 242.106 459.13256 241.72834 458.75 241.35352 C 458.37259 240.96899 457.99041 240.58988 457.60547 240.21289 C 457.23733 239.83795 456.86554 239.46737 456.49023 239.09961 C 456.11641 238.71865 455.73864 238.34231 455.35742 237.96875 C 454.97745 237.58155 454.59269 237.19987 454.20508 236.82031 C 453.84498 236.45362 453.48219 236.0903 453.11523 235.73047 C 452.72967 235.33729 452.33875 234.94975 451.94531 234.56445 C 451.57588 234.18821 451.20282 233.81629 450.82617 233.44727 C 450.45554 233.06964 450.08105 232.69653 449.70312 232.32617 C 449.32803 231.94387 448.94895 231.56626 448.56641 231.19141 C 448.18643 230.80421 447.80168 230.42252 447.41406 230.04297 C 447.05397 229.67627 446.69117 229.31296 446.32422 228.95312 C 445.93866 228.55995 445.54773 228.17241 445.1543 227.78711 C 444.77938 227.40527 444.39993 227.02869 444.01758 226.6543 C 443.65748 226.28761 443.29469 225.92428 442.92773 225.56445 C 442.54082 225.16989 442.14875 224.78116 441.75391 224.39453 C 441.38703 224.02094 441.01657 223.65163 440.64258 223.28516 C 440.26938 222.90487 439.89228 222.52916 439.51172 222.15625 C 439.13789 221.77529 438.76013 221.39895 438.37891 221.02539 C 438.00578 220.64517 437.62854 220.26933 437.24805 219.89648 C 436.86872 219.50993 436.48459 219.12893 436.09766 218.75 C 435.72952 218.37507 435.35773 218.00448 434.98242 217.63672 C 434.60245 217.24953 434.21769 216.86783 433.83008 216.48828 C 433.46998 216.12159 433.10719 215.75827 432.74023 215.39844 C 432.35467 215.00526 431.96375 214.61772 431.57031 214.23242 C 431.20733 213.86275 430.84066 213.49747 430.4707 213.13477 C 430.08678 212.74332 429.69837 212.35629 429.30664 211.97266 C 428.9385 211.59773 428.56671 211.22711 428.19141 210.85938 C 427.81692 210.47777 427.43855 210.10074 427.05664 209.72656 C 426.68568 209.34858 426.30989 208.97616 425.93164 208.60547 C 425.55144 208.21798 425.16715 207.83491 424.7793 207.45508 C 424.41631 207.0854 424.04964 206.72013 423.67969 206.35742 C 423.29564 205.96585 422.90751 205.57907 422.51562 205.19531 C 422.1407 204.81347 421.76126 204.4369 421.37891 204.0625 C 421.01719 203.69416 420.65184 203.33016 420.2832 202.96875 C 419.89792 202.57592 419.50838 202.1877 419.11523 201.80273 C 418.74836 201.42914 418.3779 201.05983 418.00391 200.69336 C 417.63078 200.31315 417.25354 199.93729 416.87305 199.56445 C 416.49372 199.1779 416.10959 198.7969 415.72266 198.41797 C 415.35452 198.04304 414.98273 197.67244 414.60742 197.30469 C 414.23422 196.9244 413.85713 196.5487 413.47656 196.17578 C 413.10273 195.79483 412.72498 195.41847 412.34375 195.04492 C 411.96377 194.65773 411.57902 194.27603 411.19141 193.89648 C 410.83131 193.5298 410.46852 193.16646 410.10156 192.80664 C 409.71464 192.41208 409.32259 192.02335 408.92773 191.63672 C 408.56086 191.26313 408.1904 190.89381 407.81641 190.52734 C 407.44321 190.14706 407.06612 189.77135 406.68555 189.39844 C 406.31171 189.01748 405.93396 188.64114 405.55273 188.26758 C 405.17412 187.88178 404.7905 187.50126 404.4043 187.12305 C 404.04003 186.75206 403.67207 186.38545 403.30078 186.02148 C 402.91806 185.63132 402.5311 185.24568 402.14062 184.86328 C 401.7657 184.48145 401.38626 184.10486 401.00391 183.73047 C 400.64381 183.36378 400.28102 183.00047 399.91406 182.64062 C 399.52714 182.24606 399.13508 181.85733 398.74023 181.4707 C 398.37336 181.09711 398.0029 180.72779 397.62891 180.36133 C 397.25707 179.98243 396.88111 179.60791 396.50195 179.23633 C 396.12685 178.85404 395.74778 178.4764 395.36523 178.10156 C 394.9921 177.72135 394.61486 177.3455 394.23438 176.97266 C 393.86085 176.59202 393.48247 176.21699 393.10156 175.84375 C 392.72268 175.45767 392.33961 175.07574 391.95312 174.69727 C 391.58498 174.32234 391.21321 173.95174 390.83789 173.58398 C 390.46605 173.20509 390.0901 172.83056 389.71094 172.45898 C 389.32906 172.06978 388.94233 171.68616 388.55273 171.30469 C 388.18586 170.9311 387.8154 170.56178 387.44141 170.19531 C 387.06821 169.81503 386.69112 169.43931 386.31055 169.06641 C 385.93671 168.68545 385.55896 168.3091 385.17773 167.93555 C 384.80461 167.55534 384.42737 167.17948 384.04688 166.80664 C 383.67336 166.42601 383.29496 166.05098 382.91406 165.67773 C 382.53506 165.29153 382.15222 164.90985 381.76562 164.53125 C 381.39748 164.15632 381.0257 163.78572 380.65039 163.41797 C 380.27656 163.03702 379.89881 162.66066 379.51758 162.28711 C 379.1376 161.89992 378.75285 161.51821 378.36523 161.13867 C 377.99835 160.76508 377.62791 160.39576 377.25391 160.0293 C 376.8807 159.64902 376.50362 159.2733 376.12305 158.90039 C 375.74921 158.51944 375.37147 158.14308 374.99023 157.76953 C 374.6171 157.38933 374.23986 157.01346 373.85938 156.64062 C 373.48714 156.26131 373.11004 155.88761 372.73047 155.51562 C 372.35026 155.12814 371.966 154.74506 371.57812 154.36523 C 371.21677 153.99721 370.85263 153.63259 370.48438 153.27148 C 370.09881 152.87831 369.70789 152.49076 369.31445 152.10547 C 368.93953 151.72364 368.56009 151.34704 368.17773 150.97266 C 367.81764 150.60597 367.45485 150.24264 367.08789 149.88281 C 366.70096 149.48826 366.30892 149.09951 365.91406 148.71289 C 365.54718 148.3393 365.17673 147.96998 364.80273 147.60352 C 364.42824 147.22192 364.04988 146.84487 363.66797 146.4707 C 363.29546 146.09116 362.91891 145.71595 362.53906 145.34375 C 362.16045 144.95795 361.77684 144.57743 361.39062 144.19922 C 361.02927 143.8312 360.66513 143.46658 360.29688 143.10547 C 359.91131 142.7123 359.52039 142.32475 359.12695 141.93945 C 358.75203 141.55763 358.37259 141.18103 357.99023 140.80664 C 357.63013 140.43996 357.26735 140.07662 356.90039 139.7168 C 356.51346 139.32224 356.12142 138.9335 355.72656 138.54688 C 355.35968 138.17329 354.98923 137.80396 354.61523 137.4375 C 354.24339 137.0586 353.86744 136.68407 353.48828 136.3125 C 353.11318 135.93021 352.73411 135.55257 352.35156 135.17773 C 351.97294 134.79194 351.58934 134.41141 351.20312 134.0332 C 350.84177 133.66519 350.47763 133.30056 350.10938 132.93945 C 349.72381 132.54628 349.33289 132.15873 348.93945 131.77344 C 348.56453 131.39161 348.18509 131.01501 347.80273 130.64062 C 347.44263 130.27394 347.07985 129.9106 346.71289 129.55078 C 346.32596 129.15622 345.93392 128.76748 345.53906 128.38086 C 345.17218 128.00728 344.80173 127.63794 344.42773 127.27148 C 344.05453 126.89121 343.67745 126.51548 343.29688 126.14258 C 342.92304 125.76163 342.54529 125.38526 342.16406 125.01172 C 341.78957 124.63013 341.41121 124.25307 341.0293 123.87891 C 340.65833 123.50093 340.28255 123.1285 339.9043 122.75781 C 339.52409 122.37033 339.13981 121.98725 338.75195 121.60742 C 338.38896 121.23775 338.0223 120.87246 337.65234 120.50977 C 337.27028 120.12024 336.88394 119.73531 336.49414 119.35352 C 336.11731 118.96968 335.7359 118.59116 335.35156 118.21484 C 334.98468 117.84126 334.61424 117.47193 334.24023 117.10547 C 333.86703 116.72519 333.48995 116.34946 333.10938 115.97656 C 332.73554 115.59561 332.3578 115.21925 331.97656 114.8457 C 331.60207 114.46411 331.22371 114.08705 330.8418 113.71289 C 330.47083 113.33492 330.09505 112.96248 329.7168 112.5918 C 329.33659 112.20432 328.95231 111.82123 328.56445 111.44141 C 328.19502 111.06517 327.82197 110.69323 327.44531 110.32422 C 327.07434 109.94625 326.69857 109.57383 326.32031 109.20312 C 325.94552 108.82117 325.56777 108.44288 325.18555 108.06836 C 324.8137 107.68947 324.43776 107.31493 324.05859 106.94336 C 323.67671 106.55417 323.28999 106.17053 322.90039 105.78906 C 322.53351 105.41548 322.16307 105.04615 321.78906 104.67969 C 321.41457 104.2981 321.03622 103.92104 320.6543 103.54688 C 320.28332 103.16889 319.90755 102.79647 319.5293 102.42578 C 319.14909 102.0383 318.76481 101.65521 318.37695 101.27539 C 318.01558 100.90737 317.65148 100.54275 317.2832 100.18164 C 316.89763 99.788479 316.50672 99.400911 316.11328 99.015625 C 315.73835 98.633801 315.35893 98.257197 314.97656 97.882812 C 314.61646 97.516137 314.25368 97.152784 313.88672 96.792969 C 313.49979 96.398416 313.10775 96.009666 312.71289 95.623047 C 312.34601 95.249465 311.97556 94.88013 311.60156 94.513672 C 311.22836 94.133399 310.85128 93.757663 310.4707 93.384766 C 310.09687 93.003822 309.71912 92.627448 309.33789 92.253906 C 308.95927 91.868114 308.57566 91.487576 308.18945 91.109375 C 307.82808 90.74136 307.46398 90.376728 307.0957 90.015625 C 306.70877 89.621073 306.31672 89.232321 305.92188 88.845703 C 305.55498 88.472122 305.18455 88.102786 304.81055 87.736328 C 304.4387 87.357439 304.06276 86.982895 303.68359 86.611328 C 303.30171 86.222139 302.91499 85.838495 302.52539 85.457031 C 302.15851 85.083451 301.78807 84.714113 301.41406 84.347656 C 301.04086 83.967383 300.66378 83.591648 300.2832 83.21875 C 299.90936 82.837805 299.53163 82.461434 299.15039 82.087891 C 298.77177 81.702098 298.38816 81.321559 298.00195 80.943359 C 297.64058 80.575347 297.27648 80.21071 296.9082 79.849609 C 296.52263 79.456446 296.13172 79.068879 295.73828 78.683594 C 295.36335 78.301773 294.98393 77.925161 294.60156 77.550781 C 294.24145 77.184105 293.87868 76.820752 293.51172 76.460938 C 293.12479 76.066388 292.73275 75.677631 292.33789 75.291016 C 291.97617 74.92269 291.61083 74.558667 291.24219 74.197266 C 290.85811 73.805697 290.47003 73.418909 290.07812 73.035156 C 289.70997 72.66024 289.33821 72.289617 288.96289 71.921875 C 288.58839 71.540288 288.21006 71.163224 287.82812 70.789062 C 273.09951 55.782753 252.59588 46.464844 229.9082 46.464844 L 229.90234 46.464844 L 229.74414 46.464844 z " />
    <path
       id="path1983"
       style="font-style:normal;font-variant:normal;font-weight:normal;font-stretch:normal;font-size:465.638px;line-height:1.25;font-family:'DejaVu Sans Mono';-inkscape-font-specification:'DejaVu Sans Mono, Normal';font-variant-ligatures:normal;font-variant-caps:normal;font-variant-numeric:normal;font-variant-east-asian:normal;fill:#ffffff;fill-opacity:1;stroke:none;stroke-width:12.6483;stroke-opacity:1"
       d="M 228.61328 45.335938 A 81.166578 81.166578 0 0 0 147.60938 126.50195 A 81.166578 81.166578 0 0 0 228.77734 207.66797 A 81.166578 81.166578 0 0 0 236.87891 207.26172 L 236.83008 207.28125 L 134.99805 426.00195 L 172.40039 443.26367 L 259.06445 268.05273 L 293.09961 357.79883 L 261.54102 369.75391 L 270.81445 394.49219 L 302.32422 382.53906 L 310.86523 404.64844 L 279.50781 416.22266 L 292.54688 452.07812 L 324.11328 439.58203 L 335.23242 466.66406 L 377.00195 450 L 279.29883 190.02734 A 81.166578 81.166578 0 0 0 309.94336 126.50195 A 81.166578 81.166578 0 0 0 228.77734 45.335938 A 81.166578 81.166578 0 0 0 228.61328 45.335938 z M 228.71484 91.748047 A 34.752661 34.752661 0 0 1 228.77734 91.748047 A 34.752661 34.752661 0 0 1 263.5293 126.50195 A 34.752661 34.752661 0 0 1 228.77734 161.25586 A 34.752661 34.752661 0 0 1 194.02344 126.50195 A 34.752661 34.752661 0 0 1 228.71484 91.748047 z " />
  </g>
</svg>
